{
  "accessors": [
    {
      "bufferView": 2,
      "componentType": 5126,
      "count": 240,
      "max": [
        0.5827164053916931,
        0.7784759402275085,
        -2.5510520935058594
      ],
      "min": [
        -0.5472854971885681,
        -0.405449241399765,
        -3.73504900932312
      ],
      "type": "VEC3"
    },
    {
      "bufferView": 2,
      "byteOffset": 2880,
      "componentType": 5126,
      "count": 240,
      "max": [
        0.9903910160064697,
        0.9591993689537048,
        0.9612370729446411
      ],
      "min": [
        -0.9903911352157593,
        -0.9591999053955078,
        -0.96123868227005
      ],
      "type": "VEC3"
    },
    {
      "bufferView": 1,
      "componentType": 5126,
      "count": 240,
      "max": [
        1.0,
        0.47238200902938843
      ],
      "min": [
        0.0,
        0.0
      ],
      "type": "VEC2"
    },
    {
      "bufferView": 0,
      "componentType": 5125,
      "count": 240,
      "type": "SCALAR"
    },
    {
      "bufferView": 2,
      "byteOffset": 5760,
      "componentType": 5126,
      "count": 520,
      "max": [
        2.5425009727478027,
        2.9453775882720947,
        16.448936462402344
      ],
      "min": [
        -2.457019329071045,
        -2.2194271087646484,
        -7.73039436340332
      ],
      "type": "VEC3"
    },
    {
      "bufferView": 2,
      "byteOffset": 12000,
      "componentType": 5126,
      "count": 520,
      "max": [
        0.9895748496055603,
        0.987804651260376,
        0.9982281923294067
      ],
      "min": [
        -0.9895747900009155,
        -0.9889660477638245,
        -0.9982282519340515
      ],
      "type": "VEC3"
    },
    {
      "bufferView": 1,
      "byteOffset": 1920,
      "componentType": 5126,
      "count": 520,
      "max": [
        1.0041980743408203,
        1.0
      ],
      "min": [
        -0.004198175389319658,
        0.01000000536441803
      ],
      "type": "VEC2"
    },
    {
      "bufferView": 0,
      "byteOffset": 960,
      "componentType": 5125,
      "count": 828,
      "type": "SCALAR"
    },
    {
      "bufferView": 2,
      "byteOffset": 18240,
      "componentType": 5126,
      "count": 720,
      "max": [
        2.554039239883423,
        2.917250633239746,
        16.096071243286133
      ],
      "min": [
        -2.4768784046173096,
        -2.2779440879821777,
        -7.0041937828063965
      ],
      "type": "VEC3"
    },
    {
      "bufferView": 2,
      "byteOffset": 26880,
      "componentType": 5126,
      "count": 720,
      "max": [
        0.9895747900009155,
        0.9878047704696655,
        0.9991076588630676
      ],
      "min": [
        -0.9895748496055603,
        -0.9889659881591797,
        -0.9990122318267822
      ],
      "type": "VEC3"
    },
    {
      "bufferView": 1,
      "byteOffset": 6080,
      "componentType": 5126,
      "count": 720,
      "max": [
        1.0041980743408203,
        0.9900872111320496
      ],
      "min": [
        -0.004198175389319658,
        0.49999988079071045
      ],
      "type": "VEC2"
    },
    {
      "bufferView": 0,
      "byteOffset": 4272,
      "componentType": 5125,
      "count": 1080,
      "type": "SCALAR"
    },
    {
      "bufferView": 2,
      "byteOffset": 35520,
      "componentType": 5126,
      "count": 120,
      "max": [
        2.1697330474853516,
        2.551401138305664,
        -6.952144145965576
      ],
      "min": [
        -2.0893917083740234,
        -1.7055641412734985,
        -7.3015570640563965
      ],
      "type": "VEC3"
    },
    {
      "bufferView": 2,
      "byteOffset": 36960,
      "componentType": 5126,
      "count": 120,
      "max": [
        0.9895745515823364,
        0.9878044128417969,
        0.9982281923294067
      ],
      "min": [
        -0.9895753264427185,
        -0.9878048896789551,
        -0.998228132724762
      ],
      "type": "VEC3"
    },
    {
      "bufferView": 1,
      "byteOffset": 11840,
      "componentType": 5126,
      "count": 120,
      "max": [
        1.0,
        1.0
      ],
      "min": [
        -1.564621925354004e-07,
        0.01000000536441803
      ],
      "type": "VEC2"
    },
    {
      "bufferView": 0,
      "byteOffset": 8592,
      "componentType": 5125,
      "count": 228,
      "type": "SCALAR"
    }
  ],
  "asset": {
    "extras": {
      "author": "RohitRajesh2003 (https://sketchfab.com/RohitRajesh2003)",
      "license": "CC-BY-4.0 (http://creativecommons.org/licenses/by/4.0/)",
      "source": "https://sketchfab.com/3d-models/low-poly-electric-hand-torch-7bcbf438b6d749c5b503001473faa9e3",
      "title": "Low_Poly Electric Hand Torch"
    },
    "generator": "Sketchfab-16.72.0",
    "version": "2.0"
  },
  "bufferViews": [
    {
      "buffer": 0,
      "byteLength": 9504,
      "name": "floatBufferViews",
      "target": 34963
    },
    {
      "buffer": 0,
      "byteLength": 12800,
      "byteOffset": 9504,
      "byteStride": 8,
      "name": "floatBufferViews",
      "target": 34962
    },
    {
      "buffer": 0,
      "byteLength": 38400,
      "byteOffset": 22304,
      "byteStride": 12,
      "name": "floatBufferViews",
      "target": 34962
    }
  ],
  "buffers": [
    {
      "byteLength": 60704,
      "uri": "scene.bin"
    }
  ],
  "materials": [
    {
      "doubleSided": true,
      "name": "Light",
      "pbrMetallicRoughness": {
        "baseColorFactor": [
          0.8,
          0.8,
          0.8,
          1.0
        ],
        "metallicFactor": 0.0,
        "roughnessFactor": 0.8040408205773457
      }
    },
    {
      "doubleSided": true,
      "name": "Black",
      "pbrMetallicRoughness": {
        "baseColorFactor": [
          0.0,
          0.0,
          0.0,
          1.0
        ],
        "metallicFactor": 0.0
      }
    },
    {
      "doubleSided": true,
      "name": "Metal",
      "pbrMetallicRoughness": {
        "baseColorFactor": [
          0.259217,
          0.259217,
          0.259217,
          1.0
        ],
        "metallicFactor": 0.0,
        "roughnessFactor": 0.9294420610408974
      }
    },
    {
      "doubleSided": true,
      "name": "Glass",
      "pbrMetallicRoughness": {
        "baseColorFactor": [
          0.8,
          0.8,
          0.8,
          1.0
        ],
        "metallicFactor": 0.0,
        "roughnessFactor": 0.8211145618000169
      }
    }
  ],
  "meshes": [
    {
      "name": "Torch_Light_0",
      "primitives": [
        {
          "attributes": {
            "NORMAL": 1,
            "POSITION": 0,
            "TEXCOORD_0": 2
          },
          "indices": 3,
          "material": 0,
          "mode": 4
        }
      ]
    },
    {
      "name": "Torch_Black_0",
      "primitives": [
        {
          "attributes": {
            "NORMAL": 5,
            "POSITION": 4,
            "TEXCOORD_0": 6
          },
          "indices": 7,
          "material": 1,
          "mode": 4
        }
      ]
    },
    {
      "name": "Torch_Metal_0",
      "primitives": [
        {
          "attributes": {
            "NORMAL": 9,
            "POSITION": 8,
            "TEXCOORD_0": 10
          },
          "indices": 11,
          "material": 2,
          "mode": 4
        }
      ]
    },
    {
      "name": "Torch_Glass_0",
      "primitives": [
        {
          "attributes": {
            "NORMAL": 13,
            "POSITION": 12,
            "TEXCOORD_0": 14
          },
          "indices": 15,
          "material": 3,
          "mode": 4
        }
      ]
    }
  ],
  "nodes": [
    {
      "children": [
        1
      ],
      "matrix": [
        1.0,
        0.0,
        0.0,
        0.0,
        0.0,
        2.220446049250313e-16,
        -1.0,
        0.0,
        0.0,
        1.0,
        2.220446049250313e-16,
        0.0,
        0.0,
        0.0,
        0.0,
        1.0
      ],
      "name": "Sketchfab_model"
    },
    {
      "children": [
        2
      ],
      "matrix": [
        0.009999999776482582,
        0.0,
        0.0,
        0.0,
        0.0,
        0.0,
        0.009999999776482582,
        0.0,
        0.0,
        -0.009999999776482582,
        0.0,
        0.0,
        0.0,
        0.0,
        0.0,
        1.0
      ],
      "name": "8392917097934db3838bf3ca960207e6.fbx"
    },
    {
      "children": [
        3
      ],
      "name": "RootNode"
    },
    {
      "children": [
        4,
        5,
        6,
        7
      ],
      "matrix": [
        1.0,
        0.0,
        0.0,
        0.0,
        0.0,
        1.0,
        0.0,
        0.0,
        0.0,
        0.0,
        1.0,
        0.0,
        -0.0177154578268528,
        2.2216272354125977,
        -7.4096293449401855,
        1.0
      ],
      "name": "Torch"
    },
    {
      "mesh": 0,
      "name": "Torch_Light_0"
    },
    {
      "mesh": 1,
      "name": "Torch_Black_0"
    },
    {
      "mesh": 2,
      "name": "Torch_Metal_0"
    },
    {
      "mesh": 3,
      "name": "Torch_Glass_0"
    }
  ],
  "scene": 0,
  "scenes": [
    {
      "name": "Sketchfab_Scene",
      "nodes": [
        0
      ]
    }
  ]
}
