{
  "accessors": [
    {
      "bufferView": 2,
      "componentType": 5126,
      "count": 4660,
      "max": [
        3.337017059326172,
        1.672109603881836,
        -7.299706935882568
      ],
      "min": [
        -3.1592140197753906,
        0.18393869698047638,
        -18.23442268371582
      ],
      "type": "VEC3"
    },
    {
      "bufferView": 2,
      "byteOffset": 55920,
      "componentType": 5126,
      "count": 4660,
      "max": [
        1.0,
        0.9999954104423523,
        1.0
      ],
      "min": [
        -1.0,
        -0.9999954104423523,
        -1.0
      ],
      "type": "VEC3"
    },
    {
      "bufferView": 1,
      "componentType": 5126,
      "count": 4660,
      "max": [
        1.0193638801574707,
        1.979570746421814
      ],
      "min": [
        -0.013916015625,
        0.024595022201538086
      ],
      "type": "VEC2"
    },
    {
      "bufferView": 0,
      "componentType": 5125,
      "count": 18558,
      "type": "SCALAR"
    },
    {
      "bufferView": 2,
      "byteOffset": 111840,
      "componentType": 5126,
      "count": 676,
      "max": [
        3.337017059326172,
        1.5792895555496216,
        -7.299706935882568
      ],
      "min": [
        -3.1592140197753906,
        0.18393869698047638,
        -18.23442268371582
      ],
      "type": "VEC3"
    },
    {
      "bufferView": 2,
      "byteOffset": 119952,
      "componentType": 5126,
      "count": 676,
      "max": [
        0.016881991177797318,
        0.9999330639839172,
        0.025699881836771965
      ],
      "min": [
        -0.016888465732336044,
        -0.9999954104423523,
        -0.02567525953054428
      ],
      "type": "VEC3"
    },
    {
      "bufferView": 1,
      "byteOffset": 37280,
      "componentType": 5126,
      "count": 676,
      "max": [
        1.0042269229888916,
        1.9795719385147095
      ],
      "min": [
        0.001202702522277832,
        0.33851656317710876
      ],
      "type": "VEC2"
    },
    {
      "bufferView": 0,
      "byteOffset": 74232,
      "componentType": 5125,
      "count": 1638,
      "type": "SCALAR"
    },
    {
      "bufferView": 2,
      "byteOffset": 128064,
      "componentType": 5126,
      "count": 180,
      "max": [
        8.040754318237305,
        1.265018105506897,
        6.914745330810547
      ],
      "min": [
        -0.30112457275390625,
        1.1038099527359009,
        -5.0030717849731445
      ],
      "type": "VEC3"
    },
    {
      "bufferView": 2,
      "byteOffset": 130224,
      "componentType": 5126,
      "count": 180,
      "max": [
        0.9839751720428467,
        0.9999954104423523,
        0.983974814414978
      ],
      "min": [
        -0.9839755296707153,
        0.0,
        -0.9839751720428467
      ],
      "type": "VEC3"
    },
    {
      "bufferView": 1,
      "byteOffset": 42688,
      "componentType": 5126,
      "count": 180,
      "max": [
        1.0193638801574707,
        1.9956680536270142
      ],
      "min": [
        -0.013916015625,
        0.0
      ],
      "type": "VEC2"
    },
    {
      "bufferView": 0,
      "byteOffset": 80784,
      "componentType": 5125,
      "count": 702,
      "type": "SCALAR"
    },
    {
      "bufferView": 2,
      "byteOffset": 132384,
      "componentType": 5126,
      "count": 100,
      "max": [
        8.040754318237305,
        1.167283535003662,
        6.914745330810547
      ],
      "min": [
        -0.30112457275390625,
        1.0783754587173462,
        -5.0030717849731445
      ],
      "type": "VEC3"
    },
    {
      "bufferView": 2,
      "byteOffset": 133584,
      "componentType": 5126,
      "count": 100,
      "max": [
        0.018445216119289398,
        -0.9996064901351929,
        0.026355843991041183
      ],
      "min": [
        -0.01840859092772007,
        -0.9999954104423523,
        -0.02635263092815876
      ],
      "type": "VEC3"
    },
    {
      "bufferView": 1,
      "byteOffset": 44128,
      "componentType": 5126,
      "count": 100,
      "max": [
        1.0042271614074707,
        1.0001181364059448
      ],
      "min": [
        0.0012115240097045898,
        0.0220640916377306
      ],
      "type": "VEC2"
    },
    {
      "bufferView": 0,
      "byteOffset": 83592,
      "componentType": 5125,
      "count": 486,
      "type": "SCALAR"
    },
    {
      "bufferView": 2,
      "byteOffset": 134784,
      "componentType": 5126,
      "count": 180,
      "max": [
        6.2022504806518555,
        1.1186162233352661,
        6.098318099975586
      ],
      "min": [
        -2.266261100769043,
        0.9574081301689148,
        -5.877381324768066
      ],
      "type": "VEC3"
    },
    {
      "bufferView": 2,
      "byteOffset": 136944,
      "componentType": 5126,
      "count": 180,
      "max": [
        0.981522798538208,
        0.9999954104423523,
        0.9815228581428528
      ],
      "min": [
        -0.9815228581428528,
        0.0,
        -0.9815228581428528
      ],
      "type": "VEC3"
    },
    {
      "bufferView": 1,
      "byteOffset": 44928,
      "componentType": 5126,
      "count": 180,
      "max": [
        1.0193638801574707,
        1.9900195598602295
      ],
      "min": [
        -0.013916015625,
        1.0031135082244873
      ],
      "type": "VEC2"
    },
    {
      "bufferView": 0,
      "byteOffset": 85536,
      "componentType": 5125,
      "count": 678,
      "type": "SCALAR"
    },
    {
      "bufferView": 2,
      "byteOffset": 139104,
      "componentType": 5126,
      "count": 116,
      "max": [
        6.2022504806518555,
        1.0628105401992798,
        6.098318099975586
      ],
      "min": [
        -2.266261100769043,
        0.9319735169410706,
        -5.877381324768066
      ],
      "type": "VEC3"
    },
    {
      "bufferView": 2,
      "byteOffset": 140496,
      "componentType": 5126,
      "count": 116,
      "max": [
        0.01864110864698887,
        0.9999775886535645,
        0.19134601950645447
      ],
      "min": [
        -0.9815227389335632,
        -0.9999954104423523,
        -0.02645939216017723
      ],
      "type": "VEC3"
    },
    {
      "bufferView": 1,
      "byteOffset": 46368,
      "componentType": 5126,
      "count": 116,
      "max": [
        1.0193177461624146,
        1.7043297290802002
      ],
      "min": [
        0.0012115240097045898,
        0.03357195854187012
      ],
      "type": "VEC2"
    },
    {
      "bufferView": 0,
      "byteOffset": 88248,
      "componentType": 5125,
      "count": 510,
      "type": "SCALAR"
    },
    {
      "bufferView": 2,
      "byteOffset": 141888,
      "componentType": 5126,
      "count": 180,
      "max": [
        5.379278659820557,
        0.9468918442726135,
        6.282352924346924
      ],
      "min": [
        -5.564916610717773,
        0.7856836915016174,
        -6.428280830383301
      ],
      "type": "VEC3"
    },
    {
      "bufferView": 2,
      "byteOffset": 144048,
      "componentType": 5126,
      "count": 180,
      "max": [
        0.8775210976600647,
        0.9999954104423523,
        0.8775210976600647
      ],
      "min": [
        -0.8775215744972229,
        0.0,
        -0.877521812915802
      ],
      "type": "VEC3"
    },
    {
      "bufferView": 1,
      "byteOffset": 47296,
      "componentType": 5126,
      "count": 180,
      "max": [
        1.0135045051574707,
        2.001394510269165
      ],
      "min": [
        -0.019775390625,
        0.9971011281013489
      ],
      "type": "VEC2"
    },
    {
      "bufferView": 0,
      "byteOffset": 90288,
      "componentType": 5125,
      "count": 702,
      "type": "SCALAR"
    },
    {
      "bufferView": 2,
      "byteOffset": 146208,
      "componentType": 5126,
      "count": 100,
      "max": [
        5.379278659820557,
        0.8491573333740234,
        6.282352924346924
      ],
      "min": [
        -5.564916610717773,
        0.7602491974830627,
        -6.428280830383301
      ],
      "type": "VEC3"
    },
    {
      "bufferView": 2,
      "byteOffset": 147408,
      "componentType": 5126,
      "count": 100,
      "max": [
        0.02400704100728035,
        -0.9996066093444824,
        0.028032712638378143
      ],
      "min": [
        -0.02405976690351963,
        -0.9999954104423523,
        -0.02803424559533596
      ],
      "type": "VEC3"
    },
    {
      "bufferView": 1,
      "byteOffset": 48736,
      "componentType": 5126,
      "count": 100,
      "max": [
        0.9983677864074707,
        0.9971117377281189
      ],
      "min": [
        -0.00464785099029541,
        0.01047819945961237
      ],
      "type": "VEC2"
    },
    {
      "bufferView": 0,
      "byteOffset": 93096,
      "componentType": 5125,
      "count": 486,
      "type": "SCALAR"
    },
    {
      "bufferView": 2,
      "byteOffset": 148608,
      "componentType": 5126,
      "count": 180,
      "max": [
        4.345938682556152,
        0.8810877799987793,
        6.38359260559082
      ],
      "min": [
        -8.048269271850586,
        0.6416446566581726,
        -5.867442607879639
      ],
      "type": "VEC3"
    },
    {
      "bufferView": 2,
      "byteOffset": 150768,
      "componentType": 5126,
      "count": 180,
      "max": [
        0.7230029106140137,
        0.9999964237213135,
        0.723019540309906
      ],
      "min": [
        -0.7230039834976196,
        -0.007005458697676659,
        -0.7230201959609985
      ],
      "type": "VEC3"
    },
    {
      "bufferView": 1,
      "byteOffset": 49536,
      "componentType": 5126,
      "count": 180,
      "max": [
        1.0135045051574707,
        2.001394510269165
      ],
      "min": [
        -0.019775390625,
        0.9971011281013489
      ],
      "type": "VEC2"
    },
    {
      "bufferView": 0,
      "byteOffset": 95040,
      "componentType": 5125,
      "count": 702,
      "type": "SCALAR"
    },
    {
      "bufferView": 2,
      "byteOffset": 152928,
      "componentType": 5126,
      "count": 100,
      "max": [
        4.345938682556152,
        0.7833569645881653,
        6.383447170257568
      ],
      "min": [
        -8.047430992126465,
        0.632564902305603,
        -5.867442607879639
      ],
      "type": "VEC3"
    },
    {
      "bufferView": 2,
      "byteOffset": 154128,
      "componentType": 5126,
      "count": 100,
      "max": [
        0.03584473207592964,
        -0.9993447661399841,
        0.02546066790819168
      ],
      "min": [
        -0.018722400069236755,
        -0.9999963045120239,
        -0.02846088632941246
      ],
      "type": "VEC3"
    },
    {
      "bufferView": 1,
      "byteOffset": 50976,
      "componentType": 5126,
      "count": 100,
      "max": [
        0.9983677864074707,
        0.9971117377281189
      ],
      "min": [
        -0.00464785099029541,
        0.01047819945961237
      ],
      "type": "VEC2"
    },
    {
      "bufferView": 0,
      "byteOffset": 97848,
      "componentType": 5125,
      "count": 486,
      "type": "SCALAR"
    }
  ],
  "asset": {
    "extras": {
      "author": "mcnubbin (https://sketchfab.com/mcnubbin)",
      "license": "CC-BY-4.0 (http://creativecommons.org/licenses/by/4.0/)",
      "source": "https://sketchfab.com/3d-models/card-deck-d59018b06f0f42cdb1c56caee326bbdb",
      "title": "Card Deck"
    },
    "generator": "Sketchfab-12.65.0",
    "version": "2.0"
  },
  "bufferViews": [
    {
      "buffer": 0,
      "byteLength": 99792,
      "name": "floatBufferViews",
      "target": 34963
    },
    {
      "buffer": 0,
      "byteLength": 51776,
      "byteOffset": 99792,
      "byteStride": 8,
      "name": "floatBufferViews",
      "target": 34962
    },
    {
      "buffer": 0,
      "byteLength": 155328,
      "byteOffset": 151568,
      "byteStride": 12,
      "name": "floatBufferViews",
      "target": 34962
    }
  ],
  "buffers": [
    {
      "byteLength": 306896,
      "uri": "scene.bin"
    }
  ],
  "images": [
    {
      "uri": "textures/lambert2_baseColor.jpeg"
    },
    {
      "uri": "textures/lambert6_baseColor.jpeg"
    },
    {
      "uri": "textures/lambert4_baseColor.jpeg"
    },
    {
      "uri": "textures/lambert5_baseColor.jpeg"
    },
    {
      "uri": "textures/lambert3_baseColor.jpeg"
    }
  ],
  "materials": [
    {
      "doubleSided": true,
      "name": "lambert2",
      "pbrMetallicRoughness": {
        "baseColorTexture": {
          "index": 0
        },
        "metallicFactor": 0.0,
        "roughnessFactor": 0.6
      }
    },
    {
      "doubleSided": true,
      "name": "lambert6",
      "pbrMetallicRoughness": {
        "baseColorTexture": {
          "index": 1
        },
        "metallicFactor": 0.0,
        "roughnessFactor": 0.6
      }
    },
    {
      "doubleSided": true,
      "name": "lambert4",
      "pbrMetallicRoughness": {
        "baseColorTexture": {
          "index": 2
        },
        "metallicFactor": 0.0,
        "roughnessFactor": 0.6
      }
    },
    {
      "doubleSided": true,
      "name": "backCardM",
      "pbrMetallicRoughness": {
        "baseColorTexture": {
          "index": 0
        },
        "metallicFactor": 0.0,
        "roughnessFactor": 0.9207483815999999
      }
    },
    {
      "doubleSided": true,
      "name": "lambert5",
      "pbrMetallicRoughness": {
        "baseColorTexture": {
          "index": 3
        },
        "metallicFactor": 0.0,
        "roughnessFactor": 0.6
      }
    },
    {
      "doubleSided": true,
      "name": "lambert3",
      "pbrMetallicRoughness": {
        "baseColorTexture": {
          "index": 4
        },
        "metallicFactor": 0.0,
        "roughnessFactor": 0.6
      }
    }
  ],
  "meshes": [
    {
      "name": "Card18_lambert2_0",
      "primitives": [
        {
          "attributes": {
            "NORMAL": 1,
            "POSITION": 0,
            "TEXCOORD_0": 2
          },
          "indices": 3,
          "material": 0,
          "mode": 4
        }
      ]
    },
    {
      "name": "Card18_lambert6_0",
      "primitives": [
        {
          "attributes": {
            "NORMAL": 5,
            "POSITION": 4,
            "TEXCOORD_0": 6
          },
          "indices": 7,
          "material": 1,
          "mode": 4
        }
      ]
    },
    {
      "name": "jack1_lambert4_0",
      "primitives": [
        {
          "attributes": {
            "NORMAL": 9,
            "POSITION": 8,
            "TEXCOORD_0": 10
          },
          "indices": 11,
          "material": 2,
          "mode": 4
        }
      ]
    },
    {
      "name": "jack1_backCardM_0",
      "primitives": [
        {
          "attributes": {
            "NORMAL": 13,
            "POSITION": 12,
            "TEXCOORD_0": 14
          },
          "indices": 15,
          "material": 3,
          "mode": 4
        }
      ]
    },
    {
      "name": "queen1_lambert5_0",
      "primitives": [
        {
          "attributes": {
            "NORMAL": 17,
            "POSITION": 16,
            "TEXCOORD_0": 18
          },
          "indices": 19,
          "material": 4,
          "mode": 4
        }
      ]
    },
    {
      "name": "queen1_backCardM_0",
      "primitives": [
        {
          "attributes": {
            "NORMAL": 21,
            "POSITION": 20,
            "TEXCOORD_0": 22
          },
          "indices": 23,
          "material": 3,
          "mode": 4
        }
      ]
    },
    {
      "name": "king1_lambert6_0",
      "primitives": [
        {
          "attributes": {
            "NORMAL": 25,
            "POSITION": 24,
            "TEXCOORD_0": 26
          },
          "indices": 27,
          "material": 1,
          "mode": 4
        }
      ]
    },
    {
      "name": "king1_backCardM_0",
      "primitives": [
        {
          "attributes": {
            "NORMAL": 29,
            "POSITION": 28,
            "TEXCOORD_0": 30
          },
          "indices": 31,
          "material": 3,
          "mode": 4
        }
      ]
    },
    {
      "name": "ace1_lambert3_0",
      "primitives": [
        {
          "attributes": {
            "NORMAL": 33,
            "POSITION": 32,
            "TEXCOORD_0": 34
          },
          "indices": 35,
          "material": 5,
          "mode": 4
        }
      ]
    },
    {
      "name": "ace1_backCardM_0",
      "primitives": [
        {
          "attributes": {
            "NORMAL": 37,
            "POSITION": 36,
            "TEXCOORD_0": 38
          },
          "indices": 39,
          "material": 3,
          "mode": 4
        }
      ]
    }
  ],
  "nodes": [
    {
      "children": [
        1
      ],
      "matrix": [
        1.0,
        0.0,
        0.0,
        0.0,
        0.0,
        2.220446049250313e-16,
        -1.0,
        0.0,
        0.0,
        1.0,
        2.220446049250313e-16,
        0.0,
        0.0,
        0.0,
        0.0,
        1.0
      ],
      "name": "Sketchfab_model"
    },
    {
      "children": [
        2
      ],
      "matrix": [
        1.0,
        0.0,
        0.0,
        0.0,
        0.0,
        0.0,
        1.0,
        0.0,
        0.0,
        -1.0,
        0.0,
        0.0,
        0.0,
        0.0,
        0.0,
        1.0
      ],
      "name": "30ba3b6b695541449b5a5943cd36abe1.fbx"
    },
    {
      "children": [
        3,
        6,
        9,
        12,
        15
      ],
      "name": "RootNode"
    },
    {
      "children": [
        4,
        5
      ],
      "matrix": [
        0.3937007784843445,
        0.0,
        0.0,
        0.0,
        0.0,
        0.3937007784843445,
        0.0,
        0.0,
        0.0,
        0.0,
        0.3937007784843445,
        0.0,
        0.0,
        -1.1102230246251565e-16,
        8.881784197001252e-16,
        1.0
      ],
      "name": "Card18"
    },
    {
      "mesh": 0,
      "name": "Card18_lambert2_0"
    },
    {
      "mesh": 1,
      "name": "Card18_lambert6_0"
    },
    {
      "children": [
        7,
        8
      ],
      "matrix": [
        0.3937007784843445,
        0.0,
        0.0,
        0.0,
        0.0,
        0.3937007784843445,
        0.0,
        0.0,
        0.0,
        0.0,
        0.3937007784843445,
        0.0,
        -4.440892098500626e-16,
        -1.1102230246251565e-16,
        -2.220446049250313e-16,
        1.0
      ],
      "name": "jack1"
    },
    {
      "mesh": 2,
      "name": "jack1_lambert4_0"
    },
    {
      "mesh": 3,
      "name": "jack1_backCardM_0"
    },
    {
      "children": [
        10,
        11
      ],
      "matrix": [
        0.3937007784843445,
        0.0,
        0.0,
        0.0,
        0.0,
        0.3937007784843445,
        0.0,
        0.0,
        0.0,
        0.0,
        0.3937007784843445,
        0.0,
        0.0,
        -1.1102230246251565e-16,
        -1.3877787807814457e-17,
        1.0
      ],
      "name": "queen1"
    },
    {
      "mesh": 4,
      "name": "queen1_lambert5_0"
    },
    {
      "mesh": 5,
      "name": "queen1_backCardM_0"
    },
    {
      "children": [
        13,
        14
      ],
      "matrix": [
        0.3937007784843445,
        0.0,
        0.0,
        0.0,
        0.0,
        0.3937007784843445,
        0.0,
        0.0,
        0.0,
        0.0,
        0.3937007784843445,
        0.0,
        0.0,
        -5.551115123125783e-17,
        6.938893903907228e-18,
        1.0
      ],
      "name": "king1"
    },
    {
      "mesh": 6,
      "name": "king1_lambert6_0"
    },
    {
      "mesh": 7,
      "name": "king1_backCardM_0"
    },
    {
      "children": [
        16,
        17
      ],
      "matrix": [
        0.3937007784843445,
        0.0,
        0.0,
        0.0,
        0.0,
        0.3937007784843445,
        0.0,
        0.0,
        0.0,
        0.0,
        0.3937007784843445,
        0.0,
        0.0,
        -5.551115123125783e-17,
        -2.7755575615628914e-17,
        1.0
      ],
      "name": "ace1"
    },
    {
      "mesh": 8,
      "name": "ace1_lambert3_0"
    },
    {
      "mesh": 9,
      "name": "ace1_backCardM_0"
    }
  ],
  "samplers": [
    {
      "magFilter": 9729,
      "minFilter": 9987,
      "wrapS": 10497,
      "wrapT": 10497
    }
  ],
  "scene": 0,
  "scenes": [
    {
      "name": "Sketchfab_Scene",
      "nodes": [
        0
      ]
    }
  ],
  "textures": [
    {
      "sampler": 0,
      "source": 0
    },
    {
      "sampler": 0,
      "source": 1
    },
    {
      "sampler": 0,
      "source": 2
    },
    {
      "sampler": 0,
      "source": 3
    },
    {
      "sampler": 0,
      "source": 4
    }
  ]
}
